<svg width="223" height="140" viewBox="0 0 223 140"  xmlns="http://www.w3.org/2000/svg">
<path d="M216.473 91.6301H7.13256C4.28016 91.6301 1.96362 89.8701 1.96362 87.7134C1.96362 85.5501 4.28016 83.7968 7.13256 83.7968H216.473C219.325 83.7968 221.642 85.5468 221.642 87.7134C221.642 89.8701 219.325 91.6301 216.473 91.6301Z" />
<path d="M216.473 115.123H7.13256C4.28016 115.123 1.96362 113.363 1.96362 111.21C1.96362 109.047 4.27683 107.293 7.13256 107.293H216.473C219.325 107.293 221.642 109.043 221.642 111.21C221.642 113.363 219.325 115.123 216.473 115.123Z" />
<path d="M216.473 139.597H7.13256C4.28016 139.597 1.96362 137.837 1.96362 135.68C1.96362 133.517 4.27683 131.763 7.13256 131.763H216.473C219.325 131.763 221.642 133.513 221.642 135.68C221.642 137.84 219.325 139.597 216.473 139.597Z" />
<path d="M46.8665 38.43C51.6394 38.43 56.3124 39.3467 60.7591 41.16C61.8209 41.5967 63.0224 41.5367 64.0409 41.0034C65.0594 40.4734 65.7916 39.5167 66.0479 38.3967C69.8722 21.4234 84.6834 9.5667 102.061 9.5667C110.684 9.5667 119.085 12.6167 125.712 18.1467C127.033 19.2534 128.921 19.36 130.362 18.4167C139.169 12.6267 149.38 9.5667 159.894 9.5667C189.63 9.5667 213.82 33.7934 213.82 63.57C213.82 66.8767 213.478 70.1 212.905 73.2434H220.807C221.306 70.0834 221.639 66.8667 221.639 63.57C221.639 29.4734 193.937 1.73337 159.891 1.73337C148.791 1.73337 137.984 4.71003 128.465 10.37C120.826 4.78337 111.557 1.73337 102.057 1.73337C82.47 1.73337 65.5753 14.1634 59.5775 32.4534C55.4504 31.22 51.1901 30.5967 46.8632 30.5967C22.9157 30.5967 3.35492 49.5434 2.20331 73.2434H10.0249C11.1699 53.86 27.2326 38.43 46.8665 38.43Z" />
</svg>
