<svg width="205" height="176" viewBox="0 0 205 176"  xmlns="http://www.w3.org/2000/svg">
<path d="M204.731 39.3704C204.731 17.8197 187.199 0.291595 165.652 0.291595C159.092 0.291595 152.633 1.94958 146.892 5.10246C142.183 1.98884 136.569 0.291595 130.934 0.291595C119.065 0.291595 108.538 7.45504 104.174 18.3059C102.087 17.8318 99.9517 17.5932 97.8014 17.5932C81.8709 17.5932 68.9121 30.555 68.9121 46.4825C68.9121 48.5814 69.1507 50.6229 69.5765 52.598C61.7486 57.5025 55.6815 65.0495 52.6645 74.2363C48.9197 73.1219 45.0541 72.5602 41.1281 72.5602C18.7288 72.5602 0.503052 90.7829 0.503052 113.185C0.503052 135.588 18.7288 153.81 41.1281 153.81C47.304 153.81 53.3682 152.397 58.8978 149.688C64.7898 165.374 79.8143 175.983 96.8773 175.983C110.902 175.983 123.825 168.783 131.245 157.018C135.391 157.975 139.559 158.458 143.684 158.458C174.576 158.458 199.711 133.323 199.711 102.431C199.711 90.4628 195.906 79.3824 189.486 70.268C198.736 63.1136 204.731 51.9396 204.731 39.3704Z" />
</svg>
