<svg width="233" height="176" viewBox="0 0 233 176" fill="none" xmlns="http://www.w3.org/2000/svg">
<path d="M232.141 49.9551C232.189 48.3667 231.217 46.921 229.727 46.3629C228.242 45.8144 226.559 46.2615 225.549 47.4885C219.868 54.4287 211.488 58.4108 202.541 58.4108C186.141 58.4108 172.798 45.044 172.798 28.6145C172.798 20.3395 176.13 12.6479 182.178 6.94099C183.337 5.85034 183.672 4.14145 183.017 2.69253C182.359 1.24044 180.859 0.365384 179.27 0.523909C155.467 2.83837 137.33 21.966 135.893 45.583C129.494 41.7816 122.037 39.6225 114.106 39.6225C113.73 39.6225 113.353 39.6542 112.977 39.67C109.91 39.7493 106.872 40.1424 103.922 40.8748C98.5703 42.2033 93.4877 44.5558 88.9999 47.8404C79.9454 42.4569 69.6724 39.6256 59.1146 39.6256C26.7417 39.6256 0.404175 66.0137 0.404175 98.4415C0.404175 130.873 26.7417 157.261 59.1146 157.261C63.4346 157.261 67.8084 156.753 72.1505 155.751C79.9264 168.104 93.4687 175.662 108.169 175.662C126.047 175.662 141.795 164.524 147.97 148.053C153.765 150.897 160.12 152.381 166.589 152.381C190.065 152.381 209.162 133.25 209.162 109.732C209.162 103.391 207.75 97.3889 205.259 91.9832C220.83 84.3582 231.622 68.6103 232.141 49.9551ZM166.585 144.93C159.936 144.93 153.439 143.025 147.786 139.423C147.182 139.043 146.489 138.846 145.789 138.846C145.327 138.846 144.859 138.932 144.413 139.109C143.305 139.547 142.479 140.498 142.188 141.655C138.235 157.289 124.246 168.208 108.166 168.208C95.2251 168.208 83.3666 161.11 77.2174 149.68C76.3913 148.145 74.6222 147.388 72.9385 147.86C68.3369 149.147 63.6846 149.807 59.1114 149.807C30.837 149.807 7.83832 126.764 7.83832 98.4383C7.83832 70.1131 30.8402 47.07 59.1114 47.07C69.1059 47.07 78.8187 49.9837 87.1928 55.4908C88.5664 56.3849 90.3577 56.2834 91.6141 55.234C94.5605 52.7769 97.8772 50.8555 101.412 49.4795C104.004 48.4682 106.713 47.777 109.489 47.406C111.014 47.2031 112.556 47.07 114.106 47.07C122.433 47.07 130.136 49.9393 136.2 54.8504C142.166 59.679 146.546 66.4861 148.35 74.4916C148.59 75.56 149.286 76.47 150.255 76.9741C151.226 77.4845 152.369 77.5384 153.375 77.1263C153.733 76.9773 154.103 76.8695 154.47 76.7395C158.369 75.2906 162.439 74.5296 166.585 74.5296C177.852 74.5296 187.869 79.8814 194.3 88.1691C195.879 90.2014 197.233 92.4112 198.341 94.7606C200.49 99.3134 201.724 104.374 201.724 109.732C201.724 129.138 185.96 144.93 166.585 144.93ZM201.557 85.5059C195.056 76.1339 184.913 69.479 173.181 67.6433C171.022 67.3072 168.836 67.079 166.585 67.079C166.199 67.079 165.813 67.1075 165.43 67.1202C161.712 67.2216 158.053 67.7828 154.499 68.8386C152.242 61.9554 148.34 55.9632 143.318 51.2043C143.264 50.3387 143.188 49.4795 143.188 48.6013C143.188 30.8656 154.319 15.7074 170.291 10.0798C167.073 15.6472 165.364 21.9818 165.364 28.6145C165.364 49.1562 182.042 65.8615 202.541 65.8615C210.032 65.8615 217.216 63.6231 223.273 59.5427C220.128 71.1023 212.108 80.4933 201.557 85.5059Z" fill="#20232A"/>
</svg>
