<svg width="172" height="196" viewBox="0 0 172 196"  xmlns="http://www.w3.org/2000/svg">
<path d="M171.666 33.7665C171.666 15.2904 156.619 0.263062 138.124 0.263062C132.494 0.263062 126.95 1.68709 122.02 4.39014C117.981 1.72074 113.16 0.263062 108.323 0.263062C98.1334 0.263062 89.0999 6.40449 85.3517 15.7073C83.5605 15.3034 81.7279 15.0962 79.8849 15.0962C66.2115 15.0962 55.0888 26.2114 55.0888 39.8691C55.0888 41.9585 55.3791 43.978 55.869 45.9173C51.1384 49.9589 47.4913 55.2822 45.4539 61.4754C42.2397 60.5174 38.9218 60.0333 35.552 60.0333C16.3263 60.0333 0.682922 75.6561 0.682922 94.8623C0.682922 106.943 6.87548 117.595 16.2486 123.845C21.7801 127.532 28.4159 129.691 35.5494 129.691C40.8477 129.691 46.0527 128.48 50.8014 126.16C51.0762 126.893 51.3872 127.607 51.7061 128.314C55.5372 136.734 62.5333 143.194 71.0329 146.42C71.5487 146.614 72.0852 146.772 72.614 146.943L63.7153 162.118L73.612 168.961L63.7153 195.575L91.8812 170.672L77.7983 162.118L91.8812 147.58L91.876 147.562C98.5015 145.897 104.489 142.357 109.103 137.309C110.485 135.799 111.786 134.204 112.898 132.444C113.73 132.633 114.567 132.728 115.399 132.876C118.129 133.355 120.864 133.673 123.575 133.673C150.09 133.673 171.661 112.129 171.661 85.645C171.661 74.9415 168.097 65.0821 162.151 57.0894C168.032 51.0541 171.666 42.831 171.666 33.7665Z" />
</svg>
