<svg width="142" height="163" viewBox="0 0 142 163"  xmlns="http://www.w3.org/2000/svg">
<g clip-path="url(#clip0)">
<path d="M71 102.25C59.8355 102.25 50.75 93.1645 50.75 82C50.75 70.8355 59.8355 61.75 71 61.75C82.1645 61.75 91.25 70.8355 91.25 82C91.25 93.1645 82.1645 102.25 71 102.25ZM71 68.5C63.5547 68.5 57.5 74.5547 57.5 82C57.5 89.4453 63.5547 95.5 71 95.5C78.4453 95.5 84.5 89.4453 84.5 82C84.5 74.5547 78.4453 68.5 71 68.5Z" />
<path d="M71 68.5C69.137 68.5 67.625 66.988 67.625 65.125V31.375C67.625 29.512 69.137 28 71 28C72.863 28 74.375 29.512 74.375 31.375V65.125C74.375 66.988 72.863 68.5 71 68.5Z" />
<path d="M71.0001 55C70.2576 55 69.5083 54.7502 68.8941 54.2642L52.0191 40.7642C50.5611 39.5965 50.3316 37.477 51.4926 36.019C52.6671 34.5677 54.7798 34.3382 56.2378 35.4925L71.0001 47.305L85.7691 35.4925C87.2338 34.3382 89.3533 34.5677 90.5143 36.019C91.6753 37.477 91.4458 39.5965 89.9878 40.7642L73.1128 54.2642C72.4918 54.7502 71.7426 55 71.0001 55Z" />
<path d="M71 34.7501C70.2575 34.7501 69.5083 34.5004 68.894 34.0144L52.019 20.5144C51.2158 19.8664 50.75 18.9012 50.75 17.8752C50.75 16.8492 51.2158 15.8838 52.019 15.2358L68.894 1.73583C70.136 0.750329 71.8708 0.750329 73.1128 1.73583L89.9878 15.2358C90.7843 15.8838 91.25 16.8492 91.25 17.8752C91.25 18.9012 90.7842 19.8664 89.981 20.5144L73.106 34.0144C72.4917 34.5004 71.7425 34.7501 71 34.7501ZM59.5317 17.8752L71 27.0552L82.4683 17.8752L71 8.69507L59.5317 17.8752Z" />
<path d="M71 136C69.137 136 67.625 134.488 67.625 132.625V98.875C67.625 97.012 69.137 95.5 71 95.5C72.863 95.5 74.375 97.012 74.375 98.875V132.625C74.375 134.488 72.863 136 71 136Z" />
<path d="M87.875 129.25C87.1325 129.25 86.39 129.007 85.769 128.514L71 116.695L56.231 128.508C54.7662 129.675 52.6535 129.432 51.4857 127.981C50.3247 126.523 50.5542 124.404 52.0122 123.236L68.8872 109.736C70.1292 108.75 71.864 108.75 73.106 109.736L89.981 123.236C91.439 124.404 91.6685 126.523 90.5075 127.981C89.846 128.818 88.8605 129.25 87.875 129.25Z" />
<path d="M71 163C70.2575 163 69.5083 162.751 68.894 162.265L52.019 148.764C51.2158 148.116 50.75 147.151 50.75 146.125C50.75 145.099 51.2158 144.134 52.019 143.486L68.894 129.986C70.136 129 71.8708 129 73.1128 129.986L89.9878 143.486C90.7843 144.134 91.25 145.099 91.25 146.125C91.25 147.151 90.7842 148.116 89.981 148.764L73.106 162.265C72.4917 162.751 71.7425 163 71 163ZM59.5317 146.125L71 155.305L82.4683 146.125L71 136.945L59.5317 146.125Z" />
<path d="M56.3863 76.9375C55.8125 76.9375 55.232 76.7958 54.6988 76.4853L25.4713 59.6103C23.858 58.6788 23.3045 56.6133 24.236 55C25.1608 53.38 27.2263 52.84 28.8463 53.7648L58.0738 70.6398C59.687 71.5713 60.2405 73.6368 59.309 75.25C58.688 76.3368 57.5473 76.9375 56.3863 76.9375Z" />
<path d="M24.5667 78.0513C23.2167 78.0513 21.941 77.2345 21.4212 75.9048C20.7395 74.17 21.5967 72.2125 23.3382 71.5308L40.9422 64.6458L38.1072 45.955C37.8237 44.1123 39.086 42.391 40.9355 42.1143C42.758 41.8578 44.4995 43.093 44.7762 44.9425L48.023 66.3063C48.2592 67.8655 47.3817 69.3843 45.917 69.958L25.7952 77.8218C25.3902 77.977 24.9785 78.0513 24.5667 78.0513Z" />
<path d="M7.0235 67.9263C6.43625 67.9263 5.85575 67.7778 5.336 67.474C4.45179 66.961 3.84429 66.0768 3.68904 65.0575L0.442291 43.6938C0.206041 42.1345 1.08354 40.6225 2.54829 40.042L22.67 32.1783C23.6285 31.807 24.695 31.888 25.586 32.401C26.477 32.914 27.0845 33.7983 27.2397 34.8175L30.4932 56.1813C30.7295 57.7405 29.852 59.2593 28.3872 59.833L8.252 67.6968C7.8605 67.852 7.442 67.9263 7.0235 67.9263ZM7.523 45.3475L9.73025 59.8668L23.4125 54.5275L21.1985 40.0015L7.523 45.3475Z" />
<path d="M114.841 110.688C114.268 110.688 113.687 110.546 113.154 110.235L83.9262 93.3603C82.313 92.4288 81.7595 90.3633 82.691 88.75C83.6225 87.13 85.6812 86.5968 87.3012 87.5148L116.529 104.39C118.142 105.321 118.695 107.387 117.764 109C117.143 110.087 116.002 110.688 114.841 110.688Z" />
<path d="M100.551 121.926C98.918 121.926 97.4735 120.731 97.2237 119.057L93.977 97.6936C93.7407 96.1344 94.6182 94.6156 96.083 94.0419L116.205 86.1781C117.933 85.5031 119.897 86.3604 120.572 88.0951C121.254 89.8299 120.396 91.7874 118.655 92.4691L101.051 99.3541L103.893 118.052C104.176 119.894 102.907 121.616 101.064 121.892C100.896 121.913 100.72 121.926 100.551 121.926Z" />
<path d="M118.101 132.051C117.514 132.051 116.934 131.903 116.414 131.599C115.523 131.086 114.915 130.195 114.767 129.183L111.513 107.819C111.277 106.26 112.155 104.741 113.619 104.167L133.748 96.3033C134.713 95.932 135.78 96.013 136.664 96.526C137.555 97.039 138.162 97.93 138.311 98.9425L141.557 120.306C141.794 121.866 140.916 123.384 139.452 123.958L119.33 131.822C118.932 131.977 118.513 132.051 118.101 132.051ZM118.587 109.473L120.801 123.992L134.477 118.646L132.27 104.127L118.587 109.473Z" />
<path d="M27.1587 110.688C25.9977 110.688 24.857 110.087 24.236 109C23.2977 107.387 23.8512 105.321 25.4712 104.39L54.6987 87.5148C56.3052 86.59 58.3775 87.13 59.309 88.75C60.2472 90.3633 59.6937 92.4288 58.0737 93.3603L28.8462 110.235C28.313 110.546 27.7325 110.688 27.1587 110.688Z" />
<path d="M41.4485 121.926C41.2798 121.926 41.1043 121.913 40.9355 121.886C39.0928 121.602 37.8238 119.888 38.1073 118.045L40.949 99.3475L23.345 92.4625C21.6035 91.7808 20.7463 89.8233 21.428 88.0885C22.1098 86.3538 24.0605 85.4898 25.7953 86.1715L45.917 94.0353C47.3885 94.609 48.266 96.1278 48.023 97.687L44.7763 119.058C44.5265 120.732 43.082 121.926 41.4485 121.926Z" />
<path d="M23.8985 132.051C23.48 132.051 23.0682 131.977 22.67 131.822L2.54826 123.958C1.07676 123.384 0.199261 121.866 0.442261 120.306L3.68901 98.9425C3.83751 97.93 4.44501 97.039 5.336 96.526C6.23375 96.013 7.30025 95.932 8.252 96.3033L28.3805 104.167C29.852 104.741 30.7295 106.26 30.4865 107.819L27.2397 129.183C27.0912 130.195 26.4837 131.086 25.5927 131.599C25.0662 131.903 24.4857 132.051 23.8985 132.051ZM7.523 118.653L21.1985 123.999L23.4125 109.473L9.73024 104.127L7.523 118.653Z" />
<path d="M85.6138 76.9377C84.4528 76.9377 83.312 76.3369 82.691 75.2502C81.7528 73.6369 82.3063 71.5714 83.9263 70.6399L113.154 53.7649C114.76 52.8334 116.833 53.3734 117.764 55.0002C118.702 56.6134 118.149 58.6789 116.529 59.6104L87.3013 76.4854C86.7681 76.7959 86.1876 76.9377 85.6138 76.9377Z" />
<path d="M117.433 78.0511C117.021 78.0511 116.61 77.9769 116.205 77.8216L96.083 69.9579C94.6115 69.3841 93.734 67.8654 93.977 66.3061L97.2237 44.9424C97.5005 43.0996 99.2757 41.8509 101.064 42.1141C102.907 42.3976 104.176 44.1121 103.893 45.9549L101.051 64.6524L118.655 71.5374C120.396 72.2191 121.254 74.1766 120.572 75.9114C120.059 77.2344 118.783 78.0511 117.433 78.0511Z" />
<path d="M134.976 67.9263C134.558 67.9263 134.146 67.852 133.748 67.6968L113.619 59.833C112.148 59.2593 111.27 57.7405 111.513 56.1813L114.767 34.8175C114.915 33.805 115.523 32.914 116.414 32.401C117.305 31.888 118.378 31.807 119.33 32.1783L139.452 40.042C140.924 40.6158 141.8 42.1345 141.557 43.6938L138.311 65.0575C138.162 66.07 137.555 66.961 136.664 67.474C136.137 67.7778 135.557 67.9263 134.976 67.9263ZM118.587 54.5275L132.27 59.8735L134.477 45.3543L120.801 40.0083L118.587 54.5275Z" />
</g>
<defs>
<clipPath id="clip0">
<rect width="142" height="163" />
</clipPath>
</defs>
</svg>
