<svg width="185" height="159" viewBox="0 0 185 159"  xmlns="http://www.w3.org/2000/svg">
<path d="M184.808 35.5445C184.808 16.14 169.018 0.347656 149.611 0.347656C143.703 0.347656 137.885 1.84637 132.712 4.68605C128.471 1.88445 123.415 0.347656 118.339 0.347656C107.647 0.347656 98.1676 6.80493 94.2345 16.5779C92.355 16.1509 90.432 15.936 88.498 15.936C74.15 15.936 62.4785 27.6102 62.4785 41.9555C62.4785 43.8459 62.6934 45.6873 63.0796 47.4608C56.0294 51.8835 50.5649 58.6808 47.8476 66.955C44.4748 65.9513 40.9932 65.4373 37.4572 65.4373C17.283 65.4373 0.867798 81.8525 0.867798 102.029C0.867798 122.204 17.2803 138.616 37.4572 138.616C43.0196 138.616 48.4787 137.343 53.4617 134.912C58.7684 149.036 72.3004 158.589 87.6684 158.589C100.3 158.589 111.942 152.105 118.622 141.516C122.357 142.367 126.113 142.808 129.826 142.808C157.649 142.808 180.284 120.172 180.284 92.3462C180.284 81.5669 176.857 71.5872 171.075 63.3809C179.409 56.9345 184.808 46.8733 184.808 35.5445ZM173.895 92.3462C173.895 116.647 154.123 136.416 129.826 136.416C125.898 136.416 121.897 135.855 117.942 134.743C116.498 134.343 114.977 134.993 114.265 136.304C108.98 146.107 98.7878 152.2 87.6657 152.2C73.8454 152.2 61.823 142.832 58.4284 129.42C58.1782 128.43 57.4656 127.616 56.5108 127.236C56.13 127.086 55.7302 127.01 55.3304 127.01C54.732 127.01 54.1363 127.181 53.6168 127.51C48.7588 130.6 43.172 132.23 37.4572 132.23C20.8054 132.23 7.2598 118.684 7.2598 102.029C7.2598 85.3749 20.8054 71.8265 37.4572 71.8265C41.3577 71.8265 45.1739 72.5745 48.8105 74.0542C49.6782 74.4105 50.6628 74.367 51.4952 73.9291C52.3275 73.4939 52.9259 72.716 53.1326 71.8021C54.8516 64.1806 59.2961 57.843 65.2992 53.6651C67.4398 52.1773 69.7763 50.9587 72.2651 50.0638C75.4883 48.9051 78.959 48.2741 82.5657 48.2741C89.6132 48.2741 96.4785 50.7656 101.894 55.2781C102.971 56.1811 104.516 56.2681 105.694 55.4957C112.891 50.771 121.236 48.2741 129.828 48.2741C141.696 48.2741 152.464 53.0123 160.393 60.6718C162.343 62.5486 164.109 64.6104 165.686 66.8245C170.832 74.0325 173.895 82.8317 173.895 92.3462ZM129.826 41.8875C120.755 41.8875 111.923 44.3165 104.141 48.9323C97.8984 44.3763 90.3232 41.8875 82.563 41.8875C78.3225 41.8875 74.248 42.6165 70.4427 43.9384C70.372 43.2856 70.3284 42.6273 70.3284 41.9555C70.3284 31.935 78.4776 23.7859 88.498 23.7859C90.84 23.7859 93.1384 24.2374 95.3252 25.1241C95.7985 25.3173 96.2963 25.4152 96.8049 25.4152C97.436 25.4152 98.0643 25.2601 98.6192 24.9691C99.6419 24.436 100.376 23.4813 100.635 22.3552C102.514 14.0211 109.796 8.19758 118.339 8.19758C122.577 8.19758 126.709 9.6963 129.964 12.4109C130.669 13.0011 131.564 13.3248 132.483 13.3248C133.247 13.3248 133.99 13.1045 134.637 12.6829C139.104 9.7507 144.283 8.20029 149.611 8.20029C164.688 8.20029 176.958 20.4702 176.958 35.5472C176.958 44.4416 172.671 52.3377 166.078 57.3317C156.895 47.8253 144.051 41.8875 129.826 41.8875Z" />
</svg>
