
<svg 
width="175" height="171" viewBox="0 0 175 171"  xmlns="http://www.w3.org/2000/svg">
<path d="M89.1214 128.631C65.5414 128.631 46.3586 109.448 46.3586 85.8685C46.3586 62.2886 65.5414 43.1095 89.1214 43.1095C112.701 43.1095 131.884 62.2923 131.884 85.8685C131.884 109.448 112.701 128.631 89.1214 128.631ZM89.1214 51.6598C70.2589 51.6598 54.9126 67.0061 54.9126 85.8685C54.9126 104.735 70.2589 120.077 89.1214 120.077C107.984 120.077 123.33 104.735 123.33 85.8685C123.33 67.0097 107.984 51.6598 89.1214 51.6598Z" />
<path d="M89.122 26.8389C86.7596 26.8389 84.845 24.9206 84.845 22.5619V4.74047C84.845 2.37811 86.7596 0.467102 89.122 0.467102C91.4807 0.467102 93.3989 2.37811 93.3989 4.74047V22.5619C93.3989 24.9206 91.4807 26.8389 89.122 26.8389Z" />
<path d="M131.681 48.5735C130.585 48.5735 129.493 48.1549 128.656 47.3214C126.985 45.6542 126.985 42.9461 128.656 41.2753L143.976 25.9546C145.647 24.2874 148.352 24.2874 150.022 25.9546C151.693 27.6253 151.693 30.3335 150.022 32.0006L134.702 47.3214C133.868 48.1549 132.776 48.5735 131.681 48.5735Z" />
<path d="M39.7492 48.5735C38.6536 48.5735 37.5579 48.1549 36.7244 47.3214L21.4 32.0006C19.7329 30.3335 19.7329 27.6253 21.4 25.9546C23.0708 24.2874 25.7789 24.2874 27.446 25.9546L42.7704 41.2753C44.4375 42.9461 44.4375 45.6579 42.7704 47.3214C41.9369 48.1549 40.8412 48.5735 39.7492 48.5735Z" />
<path d="M85.7145 170.623C83.3521 170.623 81.4375 168.708 81.4375 166.346V148.524C81.4375 146.162 83.3521 144.247 85.7145 144.247C88.0732 144.247 89.9879 146.162 89.9879 148.524V166.346C89.9879 168.708 88.0732 170.623 85.7145 170.623Z" />
<path d="M27.8315 146.387C26.7395 146.387 25.6439 145.969 24.8103 145.135C23.1396 143.468 23.1396 140.756 24.8103 139.085L40.1311 123.765C41.8018 122.094 44.5063 122.094 46.1771 123.765C47.8479 125.432 47.8479 128.14 46.1771 129.811L30.8564 145.135C30.0228 145.969 28.9272 146.387 27.8315 146.387Z" />
<path d="M150.413 146.387C149.321 146.387 148.225 145.969 147.388 145.135L132.067 129.811C130.397 128.14 130.397 125.435 132.067 123.765C133.738 122.094 136.443 122.094 138.113 123.765L153.434 139.085C155.105 140.756 155.105 143.461 153.434 145.135C152.6 145.969 151.508 146.387 150.413 146.387Z" />
<path d="M24.4245 90.1458H5.1835C2.82114 90.1458 0.906494 88.2312 0.906494 85.8688C0.906494 83.5101 2.82114 81.5918 5.1835 81.5918H24.4245C26.7869 81.5918 28.7015 83.5064 28.7015 85.8688C28.6979 88.2312 26.7869 90.1458 24.4245 90.1458Z" />
<path d="M169.809 90.1458H147.001C144.639 90.1458 142.724 88.2312 142.724 85.8688C142.724 83.5101 144.639 81.5918 147.001 81.5918H169.809C172.168 81.5918 174.086 83.5064 174.086 85.8688C174.086 88.2312 172.168 90.1458 169.809 90.1458Z" />
</svg>
