<svg width="192" height="173" viewBox="0 0 192 173"  xmlns="http://www.w3.org/2000/svg">
<path d="M69.0509 20.7843C70.8718 20.7843 72.3527 19.3062 72.3527 17.4825V3.72756C72.3527 1.90387 70.8746 0.425812 69.0509 0.425812C67.2272 0.425812 65.7491 1.90387 65.7491 3.72756V17.4825C65.7491 19.3062 67.2272 20.7843 69.0509 20.7843Z" />
<path d="M101.905 37.5657C102.751 37.5657 103.594 37.2425 104.241 36.599L116.068 24.7717C117.358 23.482 117.358 21.3885 116.068 20.1043C114.778 18.8145 112.687 18.8145 111.398 20.1043L99.5704 31.9316C98.2806 33.2214 98.2806 35.3149 99.5704 36.599C100.217 37.2425 101.062 37.5657 101.905 37.5657Z" />
<path d="M28.6008 36.599C29.2443 37.2425 30.0873 37.5657 30.9331 37.5657C31.7789 37.5657 32.6247 37.2425 33.2654 36.599C34.5552 35.3092 34.5552 33.2214 33.2654 31.9316L21.4381 20.1043C20.1483 18.8145 18.0577 18.8145 16.7707 20.1043C15.4809 21.3941 15.4809 23.482 16.7707 24.7717L28.6008 36.599Z" />
<path d="M22.4047 66.3542C22.4047 64.5333 20.9294 63.0524 19.1029 63.0524H4.24926C2.42838 63.0524 0.94751 64.5333 0.94751 66.3542C0.94751 68.1778 2.42557 69.6559 4.24926 69.6559H19.1029C20.9294 69.6559 22.4047 68.1807 22.4047 66.3542Z" />
<path d="M139.151 52.1128C129.78 52.1128 120.656 54.6221 112.617 59.3907C108.638 56.4823 104.128 54.3945 99.3674 53.2199C93.2248 39.0182 77.6827 30.6416 62.0169 34.0782C44.2352 37.9729 32.939 55.6084 36.8365 73.3873C37.1063 74.6125 37.4716 75.787 37.8734 76.9476C19.8079 79.7716 5.92932 95.3952 5.92932 114.245C5.92932 135.089 22.882 152.045 43.7266 152.045C49.4731 152.045 55.1156 150.73 60.2607 148.212C65.743 162.804 79.7255 172.676 95.5964 172.676C108.649 172.676 120.673 165.977 127.577 155.032C131.435 155.917 135.316 156.369 139.151 156.369C167.895 156.369 191.28 132.982 191.28 104.235C191.28 75.4976 167.892 52.1128 139.151 52.1128ZM63.4303 40.5272C74.5326 38.0965 85.5366 43.0871 91.328 52.1521C90.9936 52.1437 90.6621 52.1128 90.3277 52.1128C73.788 52.1128 59.5273 62.5913 54.4636 78.0069C51.308 77.0712 48.0596 76.5738 44.7579 76.4839C44.1537 75.0452 43.6339 73.5559 43.2911 71.9767C40.1692 57.7553 49.2033 43.6491 63.4303 40.5272ZM139.151 149.769C135.094 149.769 130.963 149.184 126.875 148.041C125.382 147.622 123.812 148.296 123.075 149.653C117.616 159.781 107.089 166.075 95.5964 166.075C81.3216 166.075 68.9014 156.397 65.3945 142.541C65.1332 141.516 64.397 140.673 63.4135 140.285C63.0201 140.13 62.607 140.052 62.1939 140.052C61.5729 140.052 60.9604 140.226 60.4208 140.563C55.4022 143.755 49.6304 145.441 43.7266 145.441C26.5266 145.441 12.53 131.445 12.53 114.242C12.53 97.0391 26.5238 83.0425 43.7266 83.0425C47.7562 83.0425 51.7014 83.8152 55.4556 85.3438C56.352 85.712 57.3692 85.6642 58.2262 85.2118C59.0889 84.7622 59.7043 83.9585 59.9206 83.0144C63.1493 68.703 75.6538 58.7107 90.3249 58.7107C91.7018 58.7107 93.0702 58.8287 94.4246 59.0085C96.8862 59.3373 99.2887 59.9499 101.596 60.8435C104.729 62.063 107.679 63.7659 110.296 65.9436C111.408 66.8765 113.004 66.9664 114.218 66.1712C121.654 61.2902 130.277 58.7107 139.151 58.7107C164.256 58.7107 184.679 79.1337 184.679 104.235C184.679 129.346 164.253 149.769 139.151 149.769Z" />
</svg>
