<svg width="235" height="177" viewBox="0 0 235 177"  xmlns="http://www.w3.org/2000/svg">
<path d="M234.692 49.9894C234.737 48.3819 233.758 46.928 232.248 46.3612C230.751 45.8008 229.049 46.2555 228.028 47.498C222.286 54.5047 213.811 58.5236 204.77 58.5236C188.191 58.5236 174.703 45.0259 174.703 28.4315C174.703 20.0799 178.072 12.3047 184.183 6.54378C185.354 5.43899 185.696 3.71295 185.03 2.2527C184.365 0.782844 182.849 -0.0977893 181.246 0.0623258C157.184 2.3968 138.852 21.7163 137.393 45.5702C130.925 41.7307 123.387 39.5467 115.37 39.5467C114.989 39.5467 114.612 39.5851 114.231 39.5947C111.128 39.678 108.059 40.0751 105.075 40.8116C99.6614 42.1534 94.5234 44.5295 89.9901 47.8471C80.837 42.4096 70.4522 39.5467 59.7827 39.5467C27.0575 39.5467 0.430054 66.1963 0.430054 98.959C0.430054 131.715 27.0575 158.362 59.7827 158.362C64.1497 158.362 68.5678 157.853 72.9604 156.841C80.821 169.314 94.5106 176.945 109.368 176.945C127.441 176.945 143.36 165.698 149.602 149.065C155.46 151.935 161.884 153.433 168.426 153.433C192.155 153.433 211.463 134.111 211.463 110.356C211.463 103.951 210.033 97.8895 207.518 92.4295C223.258 84.7376 234.168 68.8286 234.692 49.9894ZM203.775 85.8968C197.2 76.434 186.95 69.7092 175.09 67.8519C172.912 67.5156 170.698 67.2819 168.426 67.2819C168.033 67.2819 167.646 67.3139 167.252 67.3235C163.496 67.426 159.795 67.9928 156.202 69.0655C153.921 62.1069 149.979 56.0546 144.899 51.2511C144.845 50.3801 144.765 49.5123 144.765 48.622C144.765 30.7084 156.02 15.3981 172.163 9.71086C168.913 15.3405 167.182 21.7355 167.182 28.4347C167.182 49.1824 184.042 66.0522 204.767 66.0522C212.339 66.0522 219.598 63.7977 225.722 59.6732C222.548 71.3488 214.438 80.834 203.775 85.8968Z"/>
</svg>
