<svg width="172" height="166" viewBox="0 0 172 166"  xmlns="http://www.w3.org/2000/svg">
<path d="M48.8166 129.761C48.8166 134.619 44.8775 138.558 40.0188 138.558C35.16 138.558 31.2209 134.619 31.2209 129.761C31.2209 124.902 40.0188 111.782 40.0188 111.782C40.0188 111.782 48.8166 124.902 48.8166 129.761Z" />
<path d="M86.6885 156.537C86.6885 161.398 82.7494 165.337 77.8907 165.337C73.0294 165.337 69.0929 161.398 69.0929 156.537C69.0929 151.678 77.8907 138.558 77.8907 138.558C77.8907 138.558 86.6885 151.678 86.6885 156.537Z" />
<path d="M122.651 147.359C122.651 152.218 118.712 156.157 113.853 156.157C108.994 156.157 105.055 152.218 105.055 147.359C105.055 142.5 113.853 129.378 113.853 129.378C113.853 129.378 122.651 142.5 122.651 147.359Z" />
<path d="M83.1377 111.782C68.4208 111.782 55.4572 102.63 50.3745 89.0958C45.6017 91.4301 40.373 92.6519 35.0454 92.6519C15.7225 92.6519 0 76.9294 0 57.6065C0 38.2811 15.7199 22.5612 35.0454 22.5612C38.4322 22.5612 41.7668 23.0484 44.9973 24.0097C49.6919 9.71746 62.9134 0 78.2477 0C85.683 0 92.9385 2.38117 98.9175 6.75272C106.371 2.32907 114.83 0 123.519 0C150.167 0 171.848 21.6806 171.848 48.332C171.848 74.9833 150.167 96.664 123.519 96.664C119.962 96.664 116.362 96.2471 112.788 95.4213C106.387 105.569 95.2363 111.782 83.1377 111.782Z" />
</svg>
