<svg width="158" height="184" viewBox="0 0 158 184"  xmlns="http://www.w3.org/2000/svg">
<path d="M157.783 31.1212C157.783 14.1399 143.967 0.324005 126.988 0.324005C121.817 0.324005 116.723 1.63062 112.201 4.11534C108.491 1.66394 104.067 0.324005 99.6231 0.324005C90.2697 0.324005 81.9754 5.97175 78.534 14.5231C76.8894 14.147 75.2067 13.9614 73.5145 13.9614C60.96 13.9614 50.7475 24.174 50.7475 36.7261C50.7475 40.4556 51.6685 43.9684 53.2631 47.0767C48.0485 50.9204 44.0216 56.3468 41.9058 62.7966C38.9546 61.9136 35.9058 61.4686 32.8142 61.4686C15.1617 61.4686 0.798401 75.8319 0.798401 93.4843C0.798401 111.139 15.1617 125.5 32.8142 125.5C37.6813 125.5 42.4603 124.386 46.8181 122.256C49.1719 128.52 53.3821 133.749 58.7086 137.388V130.201C55.1267 126.84 52.4373 122.485 51.164 117.453C50.945 116.582 50.3214 115.873 49.4884 115.537C49.1552 115.407 48.8054 115.342 48.4531 115.342C47.9295 115.342 47.4083 115.49 46.9537 115.78C42.7031 118.484 37.8122 119.907 32.8142 119.907C18.2438 119.907 6.38902 108.055 6.38902 93.482C6.38902 78.9092 18.2414 67.0568 32.8142 67.0568C36.2271 67.0568 39.5662 67.7137 42.7507 69.006C43.5075 69.3154 44.3691 69.275 45.0973 68.8966C45.8232 68.5134 46.3468 67.8351 46.5301 67.033C47.9629 60.6879 51.5567 55.3663 56.4261 51.713C58.3182 50.2945 60.3984 49.1378 62.6237 48.2715C65.6272 47.1029 68.8783 46.446 72.2817 46.446C78.4507 46.446 84.4554 48.6213 89.194 52.5745C90.1388 53.3647 91.4883 53.4385 92.5188 52.7625C98.8163 48.6309 106.118 46.446 113.634 46.446C121.819 46.446 129.404 49.0283 135.652 53.3956C137.729 54.8427 139.65 56.4944 141.397 58.3127C148.068 65.248 152.195 74.6466 152.195 85.0068C152.195 106.267 134.897 123.568 113.634 123.568C110.197 123.568 106.696 123.075 103.236 122.104C101.975 121.752 100.639 122.32 100.018 123.468C97.167 128.761 92.664 132.761 87.3638 135.087V141.065C94.0873 138.711 99.9349 134.204 103.831 128.025C107.096 128.777 110.385 129.158 113.634 129.158C137.979 129.158 157.788 109.354 157.788 85.0068C157.788 73.5138 153.34 63.0679 146.121 55.2068C153.214 49.5638 157.783 40.8721 157.783 31.1212ZM113.629 40.8602C105.692 40.8602 97.9667 42.9879 91.1575 47.0291C85.6954 43.0355 79.0671 40.8602 72.2746 40.8602C67.6359 40.8602 63.2139 41.855 59.2131 43.6281C58.1992 41.5361 57.6138 39.2037 57.6138 36.7261C57.6138 27.9629 64.7442 20.8301 73.5122 20.8301C75.5613 20.8301 77.5748 21.2228 79.486 22.001C79.9001 22.1676 80.3356 22.2533 80.7831 22.2533C81.3352 22.2533 81.885 22.1177 82.3729 21.8678C83.2678 21.3965 83.9104 20.5635 84.1341 19.5782C85.7787 12.2835 92.1499 7.19031 99.6231 7.19031C103.334 7.19031 106.949 8.4993 109.798 10.8745C110.414 11.3934 111.197 11.6766 112.002 11.6766C112.67 11.6766 113.32 11.4814 113.884 11.1149C117.794 8.54928 122.326 7.19268 126.988 7.19268C140.181 7.19268 150.915 17.9265 150.915 31.1236C150.915 39.068 147.004 46.0985 141.03 50.4563C133.491 44.4635 123.98 40.8602 113.629 40.8602Z" />
<path d="M81.3686 141.91L82.1683 136.115C80.4024 136.381 78.615 136.567 76.7895 136.567C74.5404 136.567 68.2001 134.454 66.0414 134.047L65.1442 140.439L57.4044 153.239L66.4913 159.532L57.4044 183.996L83.2679 161.103L70.335 153.239L81.3686 141.91Z" />
</svg>
