<svg width="197" height="168" viewBox="0 0 197 168"  xmlns="http://www.w3.org/2000/svg">
<path d="M57.5804 62.9241C57.5804 40.5401 71.7202 21.4201 92.0112 14.3161C87.9224 21.3401 85.7514 29.3361 85.7514 37.7041C85.7514 63.6161 106.939 84.6961 132.983 84.6961C142.499 84.6961 151.622 81.8801 159.317 76.7201C158.505 79.6841 157.419 82.5241 156.121 85.2441H166.361C168.861 78.8361 170.381 71.9241 170.582 64.6281C170.642 62.6241 169.408 60.7961 167.514 60.0961C165.629 59.4041 163.494 59.9641 162.212 61.5201C154.995 70.2721 144.345 75.2961 132.983 75.2961C112.149 75.2961 95.1994 58.4281 95.1994 37.7041C95.1994 27.2721 99.4328 17.5601 107.112 10.3601C108.583 8.98406 109.009 6.82807 108.173 4.99607C107.337 3.16807 105.435 2.05606 103.417 2.26006C71.9011 5.30806 48.1324 31.3801 48.1324 62.9241C48.1324 70.8041 49.6924 78.3161 52.4463 85.2441H62.7587C59.474 78.4801 57.5804 70.9241 57.5804 62.9241Z" />
<path d="M190.869 109.796H8.46299C5.97436 109.796 3.95612 107.684 3.95612 105.096C3.95612 102.5 5.97436 100.396 8.46299 100.396H190.869C193.362 100.396 195.376 102.496 195.376 105.096C195.372 107.684 193.358 109.796 190.869 109.796Z" />
<path d="M190.869 137.992H8.46299C5.97034 137.992 3.95612 135.88 3.95612 133.292C3.95612 130.696 5.97034 128.592 8.46299 128.592H190.869C193.354 128.592 195.376 130.692 195.376 133.292C195.372 135.88 193.354 137.992 190.869 137.992Z" />
<path d="M190.869 167.36H8.46299C5.97034 167.36 3.95612 165.248 3.95612 162.66C3.95612 160.064 5.97034 157.96 8.46299 157.96H190.869C193.354 157.96 195.376 160.06 195.376 162.66C195.372 165.248 193.354 167.36 190.869 167.36Z" />
</svg>
