<svg width="180" height="175" viewBox="0 0 180 175"  xmlns="http://www.w3.org/2000/svg">
<path d="M51.1425 137.09C51.1425 142.191 47.0198 146.326 41.9413 146.326C36.8627 146.326 32.7454 142.191 32.7454 137.09C32.7454 131.989 41.9413 118.215 41.9413 118.215C41.9413 118.215 51.1425 131.989 51.1425 137.09Z" />
<path d="M90.7279 165.201C90.7279 170.305 86.6106 174.44 81.5266 174.44C76.4481 174.44 72.3308 170.305 72.3308 165.201C72.3308 160.1 81.5266 146.326 81.5266 146.326C81.5266 146.326 90.7279 160.1 90.7279 165.201Z" />
<path d="M128.314 155.566C128.314 160.666 124.197 164.802 119.119 164.802C114.04 164.802 109.917 160.666 109.917 155.566C109.917 150.465 119.119 136.688 119.119 136.688C119.119 136.688 128.314 150.465 128.314 155.566Z" />
<path d="M87.0163 118.215C71.6309 118.215 58.0836 108.607 52.7708 94.4005C47.7822 96.8511 42.3142 98.1311 36.7455 98.1311C16.5512 98.1311 0.117432 81.6275 0.117432 61.3386C0.117432 41.0496 16.5512 24.546 36.7455 24.546C40.2883 24.546 43.7711 25.0602 47.1477 26.0695C52.0574 11.062 65.8743 0.86554 81.905 0.86554C89.6767 0.86554 97.2605 3.36542 103.51 7.94945C111.301 3.30525 120.14 0.86554 129.218 0.86554C157.076 0.86554 179.74 23.627 179.74 51.6016C179.74 79.579 157.078 102.346 129.218 102.346C125.501 102.346 121.741 101.906 118.002 101.041C111.312 111.692 99.6595 118.215 87.0163 118.215ZM54.6416 86.4577C55.0392 86.4577 55.4449 86.5316 55.8234 86.6848C56.7765 87.0649 57.4927 87.8827 57.7432 88.881C61.1416 102.368 73.1776 111.787 87.0163 111.787C98.1482 111.787 108.349 105.664 113.64 95.8036C114.353 94.4825 115.878 93.8261 117.321 94.2336C121.283 95.3468 125.289 95.9157 129.218 95.9157C153.546 95.9157 173.341 76.0343 173.341 51.5989C173.341 27.1635 153.544 7.28755 129.218 7.28755C120.619 7.28755 112.262 9.79837 105.062 14.5492C103.88 15.3233 102.334 15.2358 101.255 14.3304C95.8363 9.79017 88.9633 7.28755 81.9078 7.28755C67.6906 7.28755 55.5702 17.0163 52.4441 30.9434C52.2371 31.8624 51.6353 32.6474 50.7993 33.085C49.9688 33.5226 48.9858 33.5719 48.1144 33.2136C44.4764 31.7257 40.6532 30.9735 36.7483 30.9735C20.0803 30.9735 6.51666 44.597 6.51666 61.3413C6.51666 78.0856 20.0776 91.7091 36.7483 91.7091C42.4722 91.7091 48.0654 90.0681 52.9261 86.9637C53.4462 86.6301 54.0425 86.4577 54.6416 86.4577Z" />
</svg>
