<svg width="27" height="21" viewBox="0 0 27 21"  xmlns="http://www.w3.org/2000/svg">
<path d="M25.875 11.6017H1.125C0.503998 11.6017 0 11.0977 0 10.4767C0 9.85565 0.503998 9.35165 1.125 9.35165H25.875C26.496 9.35165 27 9.85565 27 10.4767C27 11.0977 26.496 11.6017 25.875 11.6017Z" />
<path d="M25.875 2.97656H1.125C0.503998 2.97656 0 2.47256 0 1.85156C0 1.23056 0.503998 0.726562 1.125 0.726562H25.875C26.496 0.726562 27 1.23056 27 1.85156C27 2.47256 26.496 2.97656 25.875 2.97656Z" />
<path d="M25.875 20.2265H1.125C0.503998 20.2265 0 19.7225 0 19.1015C0 18.4805 0.503998 17.9765 1.125 17.9765H25.875C26.496 17.9765 27 18.4805 27 19.1015C27 19.7225 26.496 20.2265 25.875 20.2265Z" />
</svg>
