<svg width="22" height="30" viewBox="0 0 22 30"  xmlns="http://www.w3.org/2000/svg">
<path d="M11 0C5.00908 0 0.135132 4.87394 0.135132 10.8648C0.135132 18.2996 9.85812 29.2144 10.2721 29.6754C10.6609 30.1085 11.3398 30.1078 11.7279 29.6754C12.1419 29.2144 21.8649 18.2996 21.8649 10.8648C21.8647 4.87394 16.9909 0 11 0ZM11 16.3312C7.98582 16.3312 5.53367 13.879 5.53367 10.8648C5.53367 7.85062 7.98587 5.39848 11 5.39848C14.0141 5.39848 16.4663 7.85068 16.4663 10.8649C16.4663 13.879 14.0141 16.3312 11 16.3312Z" />
</svg>
