<svg width="42" height="42" viewBox="0 0 42 42"  xmlns="http://www.w3.org/2000/svg">
<path d="M21.506 31.4351C15.8831 31.4351 11.3088 26.8607 11.3088 21.2378C11.3088 15.6149 15.8831 11.0414 21.506 11.0414C27.1289 11.0414 31.7033 15.6158 31.7033 21.2378C31.7033 26.8607 27.1289 31.4351 21.506 31.4351ZM21.506 13.0804C17.0081 13.0804 13.3486 16.7399 13.3486 21.2378C13.3486 25.7367 17.0081 29.3953 21.506 29.3953C26.004 29.3953 29.6635 25.7367 29.6635 21.2378C29.6635 16.7407 26.004 13.0804 21.506 13.0804Z" />
<path d="M21.506 7.16152C20.9427 7.16152 20.4861 6.70409 20.4861 6.14162V1.8919C20.4861 1.32857 20.9427 0.872864 21.506 0.872864C22.0684 0.872864 22.5259 1.32857 22.5259 1.8919V6.14162C22.5259 6.70409 22.0684 7.16152 21.506 7.16152Z" />
<path d="M31.6547 12.3444C31.3934 12.3444 31.133 12.2446 30.9334 12.0458C30.535 11.6482 30.535 11.0024 30.9334 10.604L34.5868 6.95062C34.9852 6.55308 35.6301 6.55308 36.0286 6.95062C36.427 7.34904 36.427 7.99483 36.0286 8.39237L32.3751 12.0458C32.1764 12.2446 31.916 12.3444 31.6547 12.3444Z" />
<path d="M9.7324 12.3444C9.47113 12.3444 9.20986 12.2446 9.01109 12.0458L5.35681 8.39237C4.95927 7.99483 4.95927 7.34904 5.35681 6.95062C5.75522 6.55308 6.40102 6.55308 6.79856 6.95062L10.4528 10.604C10.8504 11.0024 10.8504 11.6491 10.4528 12.0458C10.2541 12.2446 9.9928 12.3444 9.7324 12.3444Z" />
<path d="M20.6935 41.4484C20.1302 41.4484 19.6736 40.9918 19.6736 40.4285V36.1788C19.6736 35.6154 20.1302 35.1589 20.6935 35.1589C21.256 35.1589 21.7126 35.6154 21.7126 36.1788V40.4285C21.7126 40.9918 21.256 41.4484 20.6935 41.4484Z" />
<path d="M6.89065 35.6693C6.63025 35.6693 6.36898 35.5694 6.17021 35.3707C5.7718 34.9731 5.7718 34.3265 6.17021 33.9281L9.82362 30.2746C10.222 29.8762 10.867 29.8762 11.2654 30.2746C11.6638 30.6722 11.6638 31.318 11.2654 31.7164L7.61196 35.3707C7.41318 35.5694 7.15191 35.6693 6.89065 35.6693Z" />
<path d="M36.1214 35.6693C35.861 35.6693 35.5997 35.5694 35.4001 35.3707L31.7467 31.7164C31.3483 31.318 31.3483 30.6731 31.7467 30.2746C32.1451 29.8762 32.79 29.8762 33.1884 30.2746L36.8418 33.9281C37.2402 34.3265 37.2402 34.9714 36.8418 35.3707C36.6431 35.5694 36.3827 35.6693 36.1214 35.6693Z" />
<path d="M6.07818 22.2578H1.48993C0.926601 22.2578 0.470032 21.8013 0.470032 21.2379C0.470032 20.6755 0.926601 20.218 1.48993 20.218H6.07818C6.64151 20.218 7.09808 20.6746 7.09808 21.2379C7.09721 21.8013 6.64151 22.2578 6.07818 22.2578Z" />
<path d="M40.7469 22.2578H35.3081C34.7447 22.2578 34.2881 21.8013 34.2881 21.2379C34.2881 20.6755 34.7447 20.218 35.3081 20.218H40.7469C41.3094 20.218 41.7668 20.6746 41.7668 21.2379C41.7668 21.8013 41.3094 22.2578 40.7469 22.2578Z" />
</svg>
