<svg width="42" height="34" viewBox="0 0 42 34"  xmlns="http://www.w3.org/2000/svg">
<path d="M41.1966 25.2826L40.8063 25.1378C38.5419 24.2974 36.0511 23.3729 33.4826 22.9623C33.5821 22.3214 33.633 21.67 33.633 21.0223C33.633 14.0566 27.9659 8.38953 21.0002 8.38953C14.0344 8.38953 8.36735 14.0566 8.36735 21.0223C8.36735 21.6677 8.41797 22.317 8.51681 22.9553C5.88976 23.3658 3.36943 24.3155 0.912352 25.2416L0.797098 25.285C0.161191 25.5246 -0.160043 26.2344 0.0796524 26.8703C0.319266 27.5062 1.02908 27.8275 1.66499 27.5878L1.78032 27.5443C4.97077 26.3417 7.9841 25.2058 11.1156 25.2058C12.5878 25.2058 14.0614 25.7647 15.6215 26.3563C17.3203 27.0006 19.0769 27.6668 21.0001 27.6668C22.9232 27.6668 24.6798 27.0006 26.3786 26.3563C27.9388 25.7646 29.4124 25.2058 30.8846 25.2058C33.9175 25.2058 36.9841 26.344 39.9499 27.4448L40.3417 27.5902C40.4827 27.6423 40.627 27.6671 40.769 27.6671C41.269 27.6671 41.7391 27.3601 41.923 26.8637C42.1591 26.2266 41.8338 25.5186 41.1966 25.2826ZM25.506 24.0554C23.9458 24.6471 22.4723 25.2059 21.0001 25.2059C19.5279 25.2059 18.0543 24.647 16.4942 24.0554C14.7954 23.4112 13.0387 22.745 11.1156 22.745C11.0682 22.745 11.0211 22.7461 10.9738 22.7466C10.9723 22.7362 10.9719 22.726 10.9702 22.7157C10.876 22.1579 10.8283 21.5881 10.8283 21.0223C10.8283 15.4135 15.3914 10.8505 21.0002 10.8505C26.609 10.8505 31.172 15.4135 31.172 21.0223C31.172 21.5984 31.1224 22.1785 31.0248 22.7466C30.9781 22.7461 30.9314 22.745 30.8848 22.745C28.9615 22.745 27.2048 23.4112 25.506 24.0554Z" />
<path d="M1.23047 22.2529H3.77344C4.45298 22.2529 5.00391 21.702 5.00391 21.0225C5.00391 20.3429 4.45298 19.792 3.77344 19.792H1.23047C0.550922 19.792 0 20.3429 0 21.0225C0 21.702 0.550922 22.2529 1.23047 22.2529Z" />
<path d="M3.26372 12.2032L5.46601 13.4746C5.65977 13.5865 5.87133 13.6397 6.0801 13.6397C6.50535 13.6397 6.91895 13.419 7.14683 13.0243C7.48661 12.4358 7.28497 11.6832 6.69648 11.3435L4.49419 10.072C3.90553 9.73205 3.15314 9.93385 2.81337 10.5223C2.4736 11.1108 2.67523 11.8634 3.26372 12.2032V12.2032Z" />
<path d="M11.3211 6.71897C11.5489 7.1137 11.9625 7.33437 12.3878 7.33437C12.5965 7.33437 12.8081 7.28121 13.0019 7.16932C13.5904 6.82954 13.792 6.07707 13.4522 5.4885L12.1807 3.2862C11.841 2.69779 11.0886 2.49599 10.4999 2.83585C9.91143 3.17562 9.7098 3.9281 10.0496 4.51667L11.3211 6.71897Z" />
<path d="M21 5.02637C21.6795 5.02637 22.2305 4.47545 22.2305 3.7959V1.25293C22.2305 0.573384 21.6795 0.0224609 21 0.0224609C20.3205 0.0224609 19.7695 0.573384 19.7695 1.25293V3.7959C19.7695 4.47545 20.3205 5.02637 21 5.02637Z" />
<path d="M28.998 7.16939C29.1917 7.28128 29.4033 7.33444 29.612 7.33444C30.0373 7.33444 30.4509 7.11378 30.6788 6.71904L31.9503 4.51675C32.29 3.92826 32.0884 3.1757 31.4999 2.83593C30.9113 2.49607 30.1588 2.69779 29.8191 3.28628L28.5476 5.48857C28.2078 6.07706 28.4095 6.82954 28.998 7.16939Z" />
<path d="M35.9198 13.6398C36.1285 13.6398 36.3401 13.5866 36.5339 13.4747L38.7362 12.2033C39.3247 11.8635 39.5263 11.1109 39.1865 10.5224C38.8468 9.93393 38.0943 9.73222 37.5057 10.0721L35.3034 11.3436C34.7149 11.6833 34.5133 12.4359 34.853 13.0244C35.0809 13.4191 35.4945 13.6398 35.9198 13.6398Z" />
<path d="M36.9961 21.0223C36.9961 21.7019 37.547 22.2528 38.2266 22.2528H40.7695C41.4491 22.2528 42 21.7019 42 21.0223C42 20.3428 41.4491 19.7919 40.7695 19.7919H38.2266C37.547 19.7919 36.9961 20.3427 36.9961 21.0223Z" />
<path d="M34.399 31.5971L34.3698 31.586C32.5822 30.905 29.881 29.8759 27.4805 29.8759C26.1603 29.8759 24.9609 30.3341 23.8011 30.7772C22.8061 31.1574 21.8662 31.5165 21.0001 31.5165C20.134 31.5165 19.1941 31.1574 18.199 30.7772C17.0392 30.3341 15.8399 29.8759 14.5196 29.8759C12.4588 29.8759 11.1306 30.3475 8.92982 31.129C8.53566 31.2689 8.10787 31.4208 7.63611 31.5844C6.99405 31.807 6.65395 32.5079 6.87658 33.15C7.05287 33.6586 7.52939 33.9777 8.03913 33.9777C8.17276 33.9777 8.30885 33.9558 8.44223 33.9095C8.92039 33.7437 9.35392 33.5898 9.75333 33.448C11.9021 32.685 12.8828 32.3368 14.5197 32.3368C15.3858 32.3368 16.3257 32.6958 17.3207 33.0761C18.4806 33.5192 19.6799 33.9774 21.0001 33.9774C22.3204 33.9774 23.5197 33.5192 24.6796 33.0761C25.6746 32.6958 26.6145 32.3368 27.4806 32.3368C29.4282 32.3368 31.8748 33.2688 33.4938 33.8856L33.523 33.8968C34.158 34.1388 34.869 33.82 35.1109 33.185C35.3528 32.55 35.0341 31.839 34.399 31.5971V31.5971Z" />
</svg>
