<svg width="36" height="28" viewBox="0 0 36 28"  xmlns="http://www.w3.org/2000/svg">
<path d="M27.1653 27.4465C25.6105 27.4465 24.0905 26.9855 22.7977 26.1216C21.5048 25.2578 20.4972 24.0299 19.9021 22.5934C19.3071 21.1569 19.1514 19.5762 19.4548 18.0512C19.7581 16.5262 20.5069 15.1254 21.6063 14.0259C22.7058 12.9264 24.1066 12.1777 25.6316 11.8743C27.1566 11.571 28.7373 11.7267 30.1739 12.3217C31.6104 12.9167 32.8382 13.9244 33.7021 15.2172C34.5659 16.5101 35.027 18.03 35.027 19.5849C35.0257 21.6695 34.197 23.6684 32.7229 25.1425C31.2489 26.6166 29.25 27.4452 27.1653 27.4465V27.4465ZM27.1653 12.6962C25.8029 12.6962 24.471 13.1003 23.3382 13.8572C22.2054 14.6141 21.3224 15.69 20.8011 16.9487C20.2797 18.2075 20.1433 19.5925 20.4091 20.9288C20.6749 22.2651 21.3309 23.4925 22.2943 24.4559C23.2577 25.4193 24.4852 26.0754 25.8214 26.3412C27.1577 26.607 28.5428 26.4706 29.8015 25.9492C31.0603 25.4278 32.1361 24.5449 32.8931 23.412C33.65 22.2792 34.054 20.9473 34.054 19.5849C34.0527 17.7583 33.3265 16.0069 32.0349 14.7153C30.7433 13.4237 28.9919 12.6975 27.1653 12.6962V12.6962Z" />
<path d="M19.7998 19.7357C19.6708 19.7357 19.5471 19.6845 19.4558 19.5932C19.3646 19.502 19.3134 19.3783 19.3134 19.2492L19.4593 9.57301C19.46 9.47765 19.4888 9.3846 19.542 9.30545C20.0354 8.55313 20.6186 7.86373 21.2788 7.25247C21.3262 7.20903 21.3818 7.17542 21.4423 7.1536C21.5028 7.13178 21.567 7.12218 21.6313 7.12535C21.6955 7.12851 21.7585 7.14439 21.8166 7.17205C21.8746 7.19972 21.9266 7.23863 21.9696 7.28652C22.0552 7.38272 22.0992 7.50896 22.0919 7.63754C22.0846 7.76613 22.0266 7.88657 21.9306 7.97247C21.3664 8.50116 20.8638 9.09194 20.4323 9.73356L20.2863 19.259C20.2838 19.3863 20.2314 19.5076 20.1404 19.5967C20.0495 19.6858 19.9272 19.7358 19.7998 19.7357V19.7357Z" />
<path d="M33.3876 16.1113C33.2876 16.1113 33.1901 16.0804 33.1083 16.023C33.0264 15.9655 32.9643 15.8843 32.9303 15.7902L30.133 8.22538C29.5037 7.71806 28.8081 7.29906 28.0654 6.97998C28.0042 6.95678 27.9483 6.92146 27.9011 6.87614C27.8538 6.83082 27.8162 6.77642 27.7905 6.71622C27.7647 6.65601 27.7514 6.59123 27.7513 6.52576C27.7512 6.46028 27.7644 6.39547 27.7899 6.33519C27.8155 6.27491 27.8529 6.22041 27.9001 6.17495C27.9472 6.12949 28.003 6.09401 28.0641 6.07064C28.1253 6.04726 28.1905 6.03647 28.256 6.03891C28.3214 6.04135 28.3857 6.05698 28.4449 6.08485C29.3278 6.45443 30.1483 6.95821 30.8773 7.57836C30.9351 7.63259 30.98 7.69909 31.0087 7.77295L33.8449 15.4594C33.888 15.5782 33.8832 15.7092 33.8314 15.8245C33.7797 15.9398 33.685 16.0305 33.5676 16.0773C33.5108 16.1016 33.4494 16.1132 33.3876 16.1113V16.1113Z" />
<path d="M21.6049 8.0989C21.5345 8.09928 21.4648 8.08434 21.4006 8.05512C21.309 8.01322 21.2327 7.94392 21.1821 7.85678C21.1316 7.76964 21.1093 7.66896 21.1185 7.56863L21.3082 2.8108C21.306 2.79465 21.306 2.77829 21.3082 2.76215C21.5417 1.15674 23.5022 0.660525 23.5849 0.641066C25.312 0.208093 26.7131 1.51674 26.7714 1.57512C26.8231 1.62306 26.8645 1.68099 26.8931 1.74539L28.7028 6.35242C28.7383 6.44162 28.7465 6.53932 28.7266 6.63321C28.7067 6.72711 28.6594 6.81302 28.5907 6.88011C28.5221 6.9472 28.4351 6.99248 28.3408 7.01026C28.2465 7.02803 28.149 7.0175 28.0606 6.97998C27.0574 6.50518 25.9337 6.3463 24.8382 6.52439C23.7427 6.70249 22.7271 7.20915 21.926 7.97728C21.8373 8.0555 21.7232 8.09873 21.6049 8.0989ZM22.2812 2.8789L22.1352 6.58107C22.8951 6.05292 23.7639 5.70221 24.6775 5.55486C25.5911 5.4075 26.5262 5.46726 27.4136 5.72971L26.032 2.21728C25.735 1.95741 25.3845 1.76604 25.0054 1.65674C24.6262 1.54745 24.2276 1.5229 23.8379 1.58485C23.8379 1.58485 22.4368 1.93998 22.2812 2.8789V2.8789Z" />
<path d="M8.83463 27.4466C7.27954 27.4476 5.7591 26.9873 4.46562 26.124C3.17215 25.2608 2.16374 24.0333 1.56797 22.5969C0.972197 21.1604 0.815817 19.5795 1.11861 18.0542C1.4214 16.5289 2.16977 15.1276 3.26904 14.0277C4.36831 12.9277 5.76911 12.1785 7.29425 11.8747C8.81939 11.571 10.4003 11.7264 11.8372 12.3213C13.274 12.9162 14.5021 13.9238 15.3661 15.2168C16.2302 16.5097 16.6914 18.0299 16.6914 19.585C16.6888 21.6684 15.8604 23.6658 14.3877 25.1394C12.9149 26.6131 10.918 27.4427 8.83463 27.4466V27.4466ZM8.83463 12.6963C7.47198 12.6953 6.13965 13.0985 5.00618 13.8549C3.8727 14.6112 2.98901 15.6868 2.46688 16.9454C1.94475 18.2041 1.80764 19.5893 2.07289 20.9259C2.33814 22.2625 2.99383 23.4904 3.95703 24.4543C4.92024 25.4181 6.14767 26.0747 7.48407 26.3409C8.82047 26.6071 10.2058 26.471 11.4648 25.9497C12.7238 25.4285 13.8 24.5455 14.5571 23.4126C15.3143 22.2797 15.7184 20.9476 15.7184 19.585C15.7171 17.7592 14.9916 16.0085 13.7011 14.7171C12.4105 13.4256 10.6604 12.6989 8.83463 12.6963V12.6963Z" />
<path d="M16.1999 19.7357C16.0709 19.7357 15.9472 19.6845 15.8559 19.5932C15.7647 19.502 15.7134 19.3783 15.7134 19.2492L15.5675 9.73356C15.1345 9.09169 14.6302 8.5009 14.0643 7.97247C13.9683 7.88657 13.9103 7.76613 13.903 7.63754C13.8957 7.50896 13.9397 7.38272 14.0253 7.28652C14.0683 7.23863 14.1203 7.19972 14.1783 7.17205C14.2364 7.14439 14.2994 7.12851 14.3636 7.12535C14.4279 7.12218 14.4921 7.13178 14.5526 7.1536C14.6131 7.17542 14.6687 7.20903 14.7161 7.25247C15.3763 7.86373 15.9595 8.55313 16.4529 9.30545C16.5061 9.3846 16.5349 9.47765 16.5356 9.57301L16.6815 19.2444C16.6815 19.3734 16.6303 19.4971 16.5391 19.5884C16.4478 19.6796 16.3241 19.7309 16.1951 19.7309L16.1999 19.7357Z" />
<path d="M2.61243 16.1114C2.55066 16.1133 2.48923 16.1017 2.43243 16.0773C2.315 16.0305 2.22039 15.9399 2.16863 15.8246C2.11687 15.7092 2.11203 15.5783 2.15513 15.4595L4.99622 7.77301C5.02491 7.69915 5.06979 7.63266 5.12757 7.57842C5.85662 6.95828 6.67711 6.4545 7.56 6.08491C7.6776 6.04035 7.80789 6.04306 7.92354 6.09247C8.03918 6.14189 8.1312 6.23417 8.18028 6.34996C8.22937 6.46575 8.23171 6.59604 8.18681 6.71352C8.14191 6.83099 8.05326 6.92651 7.93946 6.98004C7.19679 7.29912 6.50117 7.71813 5.87189 8.22545L3.06973 15.7903C3.03574 15.8843 2.9736 15.9656 2.89177 16.023C2.80995 16.0805 2.71241 16.1113 2.61243 16.1114V16.1114Z" />
<path d="M14.3951 8.0989C14.2752 8.09993 14.1591 8.05661 14.0692 7.97728C13.268 7.20915 12.2525 6.70249 11.157 6.52439C10.0615 6.3463 8.93775 6.50518 7.93457 6.97999C7.84643 7.01606 7.74964 7.02547 7.65621 7.00706C7.56277 6.98864 7.4768 6.94321 7.40894 6.87639C7.34108 6.80957 7.29433 6.7243 7.27448 6.63116C7.25463 6.53802 7.26255 6.4411 7.29727 6.35242L9.107 1.74539C9.1356 1.68099 9.17697 1.62306 9.22862 1.57512C9.287 1.51674 10.6881 0.208093 12.42 0.641066C12.4978 0.641066 14.4584 1.15674 14.6919 2.76215C14.694 2.77829 14.694 2.79465 14.6919 2.8108L14.8816 7.59296C14.8907 7.69328 14.8685 7.79396 14.8179 7.88111C14.7674 7.96825 14.6911 8.03755 14.5994 8.07944C14.5335 8.10039 14.4638 8.10702 14.3951 8.0989V8.0989ZM10.3767 5.47674C11.6251 5.47868 12.8428 5.86419 13.8648 6.58107L13.7189 2.8789C13.5632 1.93999 12.1913 1.58971 12.1816 1.58971C11.7896 1.52383 11.3878 1.5455 11.0051 1.65316C10.6224 1.76081 10.2683 1.9518 9.96808 2.21242L8.58646 5.72971C9.16932 5.5662 9.77138 5.48113 10.3767 5.47674V5.47674Z" />
<path d="M19.946 10.0643C19.8827 10.0651 19.8199 10.0535 19.7611 10.0302C19.2057 9.79077 18.6073 9.66724 18.0025 9.66724C17.3976 9.66724 16.7992 9.79077 16.2438 10.0302C16.1841 10.0605 16.1189 10.0782 16.0521 10.0821C15.9853 10.086 15.9185 10.0761 15.8557 10.053C15.7929 10.03 15.7356 9.99417 15.6872 9.94792C15.6389 9.90167 15.6006 9.84595 15.5748 9.78425C15.549 9.72254 15.5362 9.65617 15.5372 9.58929C15.5381 9.5224 15.5529 9.45644 15.5805 9.39552C15.6082 9.3346 15.6481 9.28004 15.6977 9.23523C15.7474 9.19042 15.8058 9.15634 15.8692 9.13511C16.5425 8.84971 17.2663 8.70264 17.9976 8.70264C18.7289 8.70264 19.4527 8.84971 20.126 9.13511C20.2256 9.18025 20.3072 9.25768 20.3574 9.35487C20.4076 9.45207 20.4237 9.56336 20.4028 9.67077C20.382 9.77819 20.3256 9.87545 20.2427 9.94685C20.1598 10.0183 20.0553 10.0596 19.946 10.0643Z" />
<path d="M19.8585 15.6395C19.8084 15.6465 19.7577 15.6465 19.7077 15.6395C18.6234 15.2647 17.4448 15.2647 16.3606 15.6395C16.2996 15.66 16.2352 15.6682 16.171 15.6636C16.1068 15.659 16.0442 15.6418 15.9867 15.6128C15.9292 15.5838 15.8781 15.5438 15.8362 15.4949C15.7944 15.4461 15.7626 15.3894 15.7428 15.3282C15.7192 15.266 15.7086 15.1997 15.7117 15.1333C15.7148 15.0669 15.7314 15.0019 15.7606 14.9421C15.7897 14.8824 15.8308 14.8293 15.8813 14.7861C15.9318 14.7429 15.9906 14.7105 16.0541 14.6909C17.3378 14.2531 18.7304 14.2531 20.0141 14.6909C20.1244 14.7271 20.218 14.8015 20.2782 14.9007C20.3384 14.9999 20.3611 15.1173 20.3423 15.2318C20.3236 15.3463 20.2645 15.4503 20.1757 15.5251C20.087 15.5998 19.9745 15.6404 19.8585 15.6395V15.6395Z" />
</svg>
