<svg width="36" height="36" viewBox="0 0 36 36"  xmlns="http://www.w3.org/2000/svg">
<g clip-path="url(#clip0)">
<path d="M21.2296 13.091C25.696 13.091 31.0909 9.84386 31.0909 5.81206C31.0909 4.77616 30.6896 3.84083 29.9178 3.02293C30.6878 2.44773 31.4819 1.94677 32.275 1.55014C32.6794 1.34802 32.8424 0.856576 32.641 0.452344C32.438 0.0472688 31.9474 -0.114961 31.5431 0.086388C30.5364 0.589798 29.533 1.25713 28.5669 2.01719C28.049 1.77081 27.499 1.63643 26.9153 1.63643C22.8835 1.6365 19.6364 7.03135 19.6364 11.4978C19.6364 12.3759 20.3507 13.091 21.2296 13.091ZM26.9153 3.27284C26.9758 3.27284 27.0329 3.28664 27.0921 3.29125C25.4011 4.88915 23.9328 6.76035 22.9954 8.63416C22.794 9.03847 22.957 9.52983 23.3613 9.73203C23.4796 9.79032 23.6043 9.81832 23.7273 9.81832C24.0261 9.81832 24.3154 9.65295 24.4592 9.36607C25.3988 7.48643 26.9188 5.60419 28.6574 4.05936C28.6594 4.06136 28.6616 4.06266 28.6636 4.06466C29.1956 4.5976 29.4545 5.16889 29.4545 5.81206C29.4545 8.78596 24.8922 11.4339 21.2727 11.4547C21.2935 7.83597 23.9414 3.27284 26.9153 3.27284Z" />
<path d="M0.327699 24.3817C0.474741 24.492 0.647326 24.5455 0.8183 24.5455C1.06598 24.5455 1.31212 24.4328 1.47351 24.2179C1.51984 24.1564 6.26269 18 17.1819 18C17.6342 18 18.0001 17.634 18.0001 17.1818C18.0001 16.7295 17.6342 16.3636 17.1819 16.3636C5.45254 16.3636 0.374105 22.9554 0.163169 23.2366C-0.106907 23.5979 -0.0334246 24.1109 0.327699 24.3817Z" />
<path d="M31.0908 13.091C27.4186 13.091 26.3751 14.9655 26.268 15.1796C26.0699 15.5759 26.2297 16.0473 26.6196 16.2567C27.0127 16.4676 27.5017 16.315 27.7222 15.9307C27.7493 15.8811 28.4397 14.7273 31.0908 14.7273C34.0439 14.7273 34.3635 17.0157 34.3635 18.0001C34.3635 19.2737 33.01 22.9092 26.9999 22.9092C23.4412 22.9092 21.3669 22.4106 19.5356 21.9703C18.0415 21.6115 16.6304 21.2727 14.7272 21.2727C10.518 21.2727 2.72135 24.6365 0.0862501 29.9068C-0.115099 30.3111 0.0478979 30.8025 0.452206 31.0047C0.570484 31.063 0.695129 31.091 0.818162 31.091C1.117 31.091 1.40625 30.9256 1.55007 30.6387C3.87352 25.9917 11.0198 22.9092 14.7272 22.9092C16.4371 22.9092 17.6947 23.212 19.1536 23.5619C21.0728 24.0229 23.2477 24.5455 26.9999 24.5455C34.3459 24.5455 35.9998 19.6979 35.9998 18.0001C35.9999 15.7357 34.7135 13.091 31.0908 13.091Z" />
<path d="M17.1818 26.1819C8.5094 26.1819 6.66213 31.4273 6.58704 31.6503C6.44483 32.0794 6.67655 32.5427 7.10479 32.685C7.53625 32.8305 7.99648 32.598 8.1403 32.168C8.15472 32.1241 9.676 27.8183 17.1818 27.8183C24.5295 27.8183 27.8182 29.8734 27.8182 31.9092C27.8182 33.9378 26.4838 34.3637 25.3636 34.3637C24.3073 34.3637 23.0609 33.3546 22.6678 32.9662C22.3482 32.6482 21.832 32.6474 21.5124 32.9686C21.1928 33.2882 21.1928 33.8051 21.5124 34.124C21.7042 34.3158 23.4444 36 25.3636 36C27.3419 36 29.4544 34.9254 29.4544 31.9092C29.4545 29.1406 26.2298 26.1819 17.1818 26.1819Z" />
</g>
<defs>
<clipPath id="clip0">
<rect width="36" height="36" />
</clipPath>
</defs>
</svg>
